<mxfile host="app.diagrams.net" modified="2020-09-24T11:18:31.209Z" agent="5.0 (Macintosh; Intel Mac OS X 10_15_4) AppleWebKit/537.36 (KHTML, like Gecko) Chrome/85.0.4183.102 Safari/537.36" etag="ky1fY9SftGzow2oNodxc" version="13.7.5" type="github">
  <diagram id="4Vgze0HB54IaDGd2Hhrv" name="Page-1">
    <mxGraphModel dx="946" dy="1708" grid="1" gridSize="10" guides="1" tooltips="1" connect="1" arrows="1" fold="1" page="1" pageScale="1" pageWidth="827" pageHeight="1169" math="0" shadow="0">
      <root>
        <mxCell id="0" />
        <mxCell id="1" parent="0" />
        <mxCell id="0V_e4BZIgl9yRD3JLTtG-28" value="&lt;font style=&quot;font-size: 14px&quot;&gt;&amp;nbsp; &amp;nbsp; &amp;nbsp;事务&amp;nbsp; &amp;nbsp; &amp;nbsp;&lt;/font&gt;" style="rounded=1;whiteSpace=wrap;html=1;align=right;labelBackgroundColor=none;fillColor=none;dashed=1;verticalAlign=bottom;" vertex="1" parent="1">
          <mxGeometry x="157.5" y="420" width="450" height="190" as="geometry" />
        </mxCell>
        <mxCell id="0V_e4BZIgl9yRD3JLTtG-18" value="Yes" style="edgeStyle=orthogonalEdgeStyle;rounded=0;orthogonalLoop=1;jettySize=auto;html=1;exitX=0.5;exitY=1;exitDx=0;exitDy=0;entryX=0.5;entryY=0;entryDx=0;entryDy=0;" edge="1" parent="1" source="0V_e4BZIgl9yRD3JLTtG-1" target="0V_e4BZIgl9yRD3JLTtG-7">
          <mxGeometry relative="1" as="geometry" />
        </mxCell>
        <mxCell id="0V_e4BZIgl9yRD3JLTtG-20" value="No" style="edgeStyle=orthogonalEdgeStyle;rounded=0;orthogonalLoop=1;jettySize=auto;html=1;exitX=1;exitY=0.5;exitDx=0;exitDy=0;entryX=0;entryY=0.5;entryDx=0;entryDy=0;" edge="1" parent="1" source="0V_e4BZIgl9yRD3JLTtG-1" target="0V_e4BZIgl9yRD3JLTtG-21">
          <mxGeometry relative="1" as="geometry">
            <mxPoint x="530" y="180" as="targetPoint" />
          </mxGeometry>
        </mxCell>
        <mxCell id="0V_e4BZIgl9yRD3JLTtG-1" value="数据集状态是否为失败&lt;br&gt;且未超过重试次数" style="rhombus;whiteSpace=wrap;html=1;" vertex="1" parent="1">
          <mxGeometry x="292.5" y="150" width="180" height="60" as="geometry" />
        </mxCell>
        <mxCell id="0V_e4BZIgl9yRD3JLTtG-27" style="edgeStyle=orthogonalEdgeStyle;rounded=0;orthogonalLoop=1;jettySize=auto;html=1;exitX=0.5;exitY=1;exitDx=0;exitDy=0;entryX=0.5;entryY=0;entryDx=0;entryDy=0;" edge="1" parent="1" source="0V_e4BZIgl9yRD3JLTtG-3" target="0V_e4BZIgl9yRD3JLTtG-23">
          <mxGeometry relative="1" as="geometry" />
        </mxCell>
        <mxCell id="0V_e4BZIgl9yRD3JLTtG-3" value="&lt;div style=&quot;&quot;&gt;&lt;span&gt;轮询&lt;/span&gt;&lt;/div&gt;&lt;div style=&quot;&quot;&gt;&lt;span&gt;获取数据集状态 &amp;amp; 重试次数&lt;/span&gt;&lt;br&gt;&lt;/div&gt;" style="rounded=0;whiteSpace=wrap;html=1;align=center;" vertex="1" parent="1">
          <mxGeometry x="295" y="-40" width="175" height="50" as="geometry" />
        </mxCell>
        <mxCell id="0V_e4BZIgl9yRD3JLTtG-15" style="edgeStyle=orthogonalEdgeStyle;rounded=0;orthogonalLoop=1;jettySize=auto;html=1;exitX=0.5;exitY=1;exitDx=0;exitDy=0;entryX=0.5;entryY=0;entryDx=0;entryDy=0;" edge="1" parent="1" source="0V_e4BZIgl9yRD3JLTtG-6" target="0V_e4BZIgl9yRD3JLTtG-10">
          <mxGeometry relative="1" as="geometry">
            <mxPoint x="390" y="540" as="targetPoint" />
          </mxGeometry>
        </mxCell>
        <mxCell id="0V_e4BZIgl9yRD3JLTtG-6" value="调用创建数据集&lt;br&gt;异步流程函数" style="rounded=0;whiteSpace=wrap;html=1;" vertex="1" parent="1">
          <mxGeometry x="190" y="460" width="130" height="50" as="geometry" />
        </mxCell>
        <mxCell id="0V_e4BZIgl9yRD3JLTtG-17" value="Yes" style="edgeStyle=orthogonalEdgeStyle;rounded=0;orthogonalLoop=1;jettySize=auto;html=1;exitX=1;exitY=0.5;exitDx=0;exitDy=0;entryX=0;entryY=0.5;entryDx=0;entryDy=0;" edge="1" parent="1" source="0V_e4BZIgl9yRD3JLTtG-7" target="0V_e4BZIgl9yRD3JLTtG-16">
          <mxGeometry relative="1" as="geometry" />
        </mxCell>
        <mxCell id="0V_e4BZIgl9yRD3JLTtG-19" value="No" style="edgeStyle=orthogonalEdgeStyle;rounded=0;orthogonalLoop=1;jettySize=auto;html=1;exitX=0.5;exitY=1;exitDx=0;exitDy=0;entryX=0.5;entryY=0;entryDx=0;entryDy=0;" edge="1" parent="1" source="0V_e4BZIgl9yRD3JLTtG-7" target="0V_e4BZIgl9yRD3JLTtG-8">
          <mxGeometry relative="1" as="geometry" />
        </mxCell>
        <mxCell id="0V_e4BZIgl9yRD3JLTtG-7" value="是否超过重试次数" style="rhombus;whiteSpace=wrap;html=1;" vertex="1" parent="1">
          <mxGeometry x="292.5" y="250" width="180" height="60" as="geometry" />
        </mxCell>
        <mxCell id="0V_e4BZIgl9yRD3JLTtG-12" value="创建失败" style="edgeStyle=orthogonalEdgeStyle;rounded=0;orthogonalLoop=1;jettySize=auto;html=1;exitX=0.5;exitY=1;exitDx=0;exitDy=0;entryX=0.5;entryY=0;entryDx=0;entryDy=0;" edge="1" parent="1" source="0V_e4BZIgl9yRD3JLTtG-8" target="0V_e4BZIgl9yRD3JLTtG-6">
          <mxGeometry relative="1" as="geometry" />
        </mxCell>
        <mxCell id="0V_e4BZIgl9yRD3JLTtG-13" value="修改失败" style="edgeStyle=orthogonalEdgeStyle;rounded=0;orthogonalLoop=1;jettySize=auto;html=1;entryX=0.5;entryY=0;entryDx=0;entryDy=0;" edge="1" parent="1" source="0V_e4BZIgl9yRD3JLTtG-8" target="0V_e4BZIgl9yRD3JLTtG-9">
          <mxGeometry relative="1" as="geometry" />
        </mxCell>
        <mxCell id="0V_e4BZIgl9yRD3JLTtG-8" value="创建or修改失败" style="rhombus;whiteSpace=wrap;html=1;" vertex="1" parent="1">
          <mxGeometry x="292.5" y="350" width="180" height="60" as="geometry" />
        </mxCell>
        <mxCell id="0V_e4BZIgl9yRD3JLTtG-14" style="edgeStyle=orthogonalEdgeStyle;rounded=0;orthogonalLoop=1;jettySize=auto;html=1;exitX=0.5;exitY=1;exitDx=0;exitDy=0;entryX=0.5;entryY=0;entryDx=0;entryDy=0;" edge="1" parent="1" source="0V_e4BZIgl9yRD3JLTtG-9" target="0V_e4BZIgl9yRD3JLTtG-10">
          <mxGeometry relative="1" as="geometry" />
        </mxCell>
        <mxCell id="0V_e4BZIgl9yRD3JLTtG-9" value="调用修改数据集&lt;br&gt;异步流程函数" style="rounded=0;whiteSpace=wrap;html=1;" vertex="1" parent="1">
          <mxGeometry x="447.5" y="460" width="130" height="50" as="geometry" />
        </mxCell>
        <mxCell id="0V_e4BZIgl9yRD3JLTtG-30" style="edgeStyle=orthogonalEdgeStyle;rounded=0;orthogonalLoop=1;jettySize=auto;html=1;exitX=0.5;exitY=1;exitDx=0;exitDy=0;fontColor=#000000;" edge="1" parent="1" source="0V_e4BZIgl9yRD3JLTtG-10" target="0V_e4BZIgl9yRD3JLTtG-29">
          <mxGeometry relative="1" as="geometry" />
        </mxCell>
        <mxCell id="0V_e4BZIgl9yRD3JLTtG-10" value="修改数据库记录，&lt;br&gt;数据集重试次数+1" style="rounded=0;whiteSpace=wrap;html=1;" vertex="1" parent="1">
          <mxGeometry x="317.5" y="550" width="130" height="50" as="geometry" />
        </mxCell>
        <mxCell id="0V_e4BZIgl9yRD3JLTtG-16" value="超过重试次数&lt;br&gt;异常" style="ellipse;whiteSpace=wrap;html=1;" vertex="1" parent="1">
          <mxGeometry x="550" y="255" width="110" height="50" as="geometry" />
        </mxCell>
        <mxCell id="0V_e4BZIgl9yRD3JLTtG-21" value="按钮置灰" style="ellipse;whiteSpace=wrap;html=1;" vertex="1" parent="1">
          <mxGeometry x="550" y="155" width="110" height="50" as="geometry" />
        </mxCell>
        <mxCell id="0V_e4BZIgl9yRD3JLTtG-24" value="Yes" style="edgeStyle=orthogonalEdgeStyle;rounded=0;orthogonalLoop=1;jettySize=auto;html=1;exitX=0;exitY=0.5;exitDx=0;exitDy=0;entryX=0;entryY=0.5;entryDx=0;entryDy=0;" edge="1" parent="1" source="0V_e4BZIgl9yRD3JLTtG-23" target="0V_e4BZIgl9yRD3JLTtG-3">
          <mxGeometry relative="1" as="geometry">
            <Array as="points">
              <mxPoint x="260" y="80" />
              <mxPoint x="260" y="-15" />
            </Array>
          </mxGeometry>
        </mxCell>
        <mxCell id="0V_e4BZIgl9yRD3JLTtG-26" value="No" style="edgeStyle=orthogonalEdgeStyle;rounded=0;orthogonalLoop=1;jettySize=auto;html=1;exitX=0.5;exitY=1;exitDx=0;exitDy=0;entryX=0.5;entryY=0;entryDx=0;entryDy=0;" edge="1" parent="1" source="0V_e4BZIgl9yRD3JLTtG-23" target="0V_e4BZIgl9yRD3JLTtG-1">
          <mxGeometry relative="1" as="geometry" />
        </mxCell>
        <mxCell id="0V_e4BZIgl9yRD3JLTtG-23" value="数据集状态&lt;br&gt;是否为修改中" style="rhombus;whiteSpace=wrap;html=1;" vertex="1" parent="1">
          <mxGeometry x="292.5" y="50" width="180" height="60" as="geometry" />
        </mxCell>
        <mxCell id="0V_e4BZIgl9yRD3JLTtG-29" value="OK" style="ellipse;whiteSpace=wrap;html=1;" vertex="1" parent="1">
          <mxGeometry x="327.5" y="640" width="110" height="40" as="geometry" />
        </mxCell>
      </root>
    </mxGraphModel>
  </diagram>
</mxfile>
